<svg xmlns="http://www.w3.org/2000/svg" fill-rule="evenodd" stroke-linejoin="round" stroke-miterlimit="2" clip-rule="evenodd" viewBox="0 0 287 59"><path fill="#ffb814" fill-rule="nonzero" d="M98.2 9.3H114c2 6.5 4.3 13.7 5.5 19.6 1.7-6.1 2.1-7.4 6.4-19.6h11.9l-13.9 32.5c-1.9 4.2-4.4 9.8-9.6 13.1-5.2 3.3-11.5 3.3-16.1 3.3v-5.6c7.7-.5 10.3-5 13.5-10.7L98.2 9.3zM14.9 14c1.8-2.3 4.3-5.6 10.6-5.6 9.9 0 15.2 8.8 15.2 18.7 0 11.6-6.6 19.4-15.7 19.4-6.1 0-8.8-3.4-10.1-5v12.6H0V9.3h14.9V14zM223.4 3.6h14.9v8.7h6.2v8.5h-6.2v12c0 1.6 0 5.5 4.2 5.5.8 0 1.5-.1 2.3-.3l1.8 4.8c-2.1 1.4-5.3 3.4-10.7 3.4-3.4 0-7-1-9.4-3.4-2.8-2.8-3-6.2-3-9.3V20.8h-4v-8.5h4V3.6h-.1zM99 44.9H84v-4.7c-1.8 2.4-4.5 5.8-11 5.8-7.5 0-11.8-5.3-11.8-11.7 0-7.9 6.3-12.3 14.1-12.3 3.9 0 6.7.9 8.7 1.6 0-2.1-.1-5-2.6-7.1-1.8-1.5-3.8-1.6-4.8-1.6-4.6 0-7.2 2.7-9.1 4.6l-4.4-3.7c3.2-3.6 7.8-8.3 18.3-8.3 7.1 0 10.4 2.1 11.6 2.9 5.9 3.8 6 9.1 6 13v21.5zm118.1-.1h-15v-4.7c-1.8 2.4-4.5 5.8-11 5.8-7.5 0-11.8-5.3-11.8-11.7 0-7.9 6.3-12.3 14.1-12.3 3.9 0 6.7.9 8.7 1.6 0-2.1-.1-5-2.6-7.1-1.8-1.5-3.8-1.6-4.8-1.6-4.6 0-7.2 2.7-9.1 4.6l-4.4-3.7c3.2-3.6 7.8-8.3 18.3-8.3 7.1 0 10.4 2.1 11.6 2.9 5.9 3.8 6 9.1 6 13v21.5zM161.3.3h15v44.5h-15v-4.7c-1.4 2-4.1 5.7-10.7 5.7-9.9 0-15.2-8.6-15.2-18.7 0-10.3 5.3-19.6 15.4-19.6 6.3 0 8.8 3.1 10.5 5.1V.3zm122.5 36.3c-1.8 2.5-6.6 9.2-17.6 9.2-12.6 0-20.2-8-20.2-19.1 0-11.3 7.7-19.3 19.5-19.3 4.9 0 8.6 1.4 11.1 3 8.6 5.3 8.6 14.9 8.6 19.5h-24.3c.3 2.1.8 4.4 3.4 6.2 1.9 1.4 3.8 1.8 6.1 1.8 4.9 0 7.8-2.9 9.6-4.7l3.8 3.4zM43.4 0h15v44.9h-15V0zm40.7 29.7c-1.2-.3-2-.5-3.3-.5-4 0-5.1 2.6-5.1 4.4 0 2 1.4 3.8 3.8 3.8 2.1 0 3.4-1.2 4.6-2.5v-5.2zm118-.2c-1.2-.3-2-.5-3.3-.5-4 0-5.1 2.6-5.1 4.4 0 2 1.4 3.8 3.8 3.8 2.1 0 3.4-1.2 4.6-2.5v-5.2zM14.9 35.3c.9.6 2 1.5 4 1.5 2.9 0 6.3-2.3 6.3-9.3 0-4.9-1.6-9.2-6.2-9.2-1.6 0-2.7.6-4.1 1.4v15.6zm146.4-16.5c-1.2-.8-2.3-1.5-4.1-1.5-3.5 0-6.3 3.3-6.3 9.6 0 5 2 8.9 6.2 8.9 1.8 0 2.9-.6 4.2-1.4V18.8zm109.5 3.8c-.1-2.2-.4-7.2-5.1-7.2-4.4 0-5 4.7-5.3 7.2h10.4z"/></svg>