<svg enable-background="new 0 0 287 58.2" viewBox="0 0 287 58.2" xmlns="http://www.w3.org/2000/svg"><path d="m14.9 14c1.8-2.3 4.3-5.6 10.6-5.6 9.9 0 15.2 8.8 15.2 18.7 0 11.6-6.6 19.4-15.7 19.4-6.1 0-8.8-3.4-10.1-5v12.6h-14.9v-44.8h14.9zm0 21.3c.9.6 2 1.5 4 1.5 2.9 0 6.3-2.3 6.3-9.3 0-4.9-1.6-9.2-6.2-9.2-1.6 0-2.7.6-4.1 1.4z"/><path d="m43.4 0h15v44.9h-15z"/><path d="m99 44.9h-15v-4.7c-1.8 2.4-4.5 5.8-11 5.8-7.5 0-11.8-5.3-11.8-11.7 0-7.9 6.3-12.3 14.1-12.3 3.9 0 6.7.9 8.7 1.6 0-2.1-.1-5-2.6-7.1-1.8-1.5-3.8-1.6-4.8-1.6-4.6 0-7.2 2.7-9.1 4.6l-4.4-3.7c3.2-3.6 7.8-8.3 18.3-8.3 7.1 0 10.4 2.1 11.6 2.9 5.9 3.8 6 9.1 6 13zm-14.9-15.2c-1.2-.3-2-.5-3.3-.5-4 0-5.1 2.6-5.1 4.4 0 2 1.4 3.8 3.8 3.8 2.1 0 3.4-1.2 4.6-2.5z"/><path d="m98.2 9.3h15.8c2 6.5 4.3 13.7 5.5 19.6 1.7-6.1 2.1-7.4 6.4-19.6h11.9l-13.9 32.5c-1.9 4.2-4.4 9.8-9.6 13.1s-11.5 3.3-16.1 3.3v-5.6c7.7-.5 10.3-5 13.5-10.7z"/><path d="m161.3.3h15v44.5h-15v-4.7c-1.4 2-4.1 5.7-10.7 5.7-9.9 0-15.2-8.6-15.2-18.7 0-10.3 5.3-19.6 15.4-19.6 6.3 0 8.8 3.1 10.5 5.1zm0 18.5c-1.2-.8-2.3-1.5-4.1-1.5-3.5 0-6.3 3.3-6.3 9.6 0 5 2 8.9 6.2 8.9 1.8 0 2.9-.6 4.2-1.4z"/><path d="m217.1 44.8h-15v-4.7c-1.8 2.4-4.5 5.8-11 5.8-7.5 0-11.8-5.3-11.8-11.7 0-7.9 6.3-12.3 14.1-12.3 3.9 0 6.7.9 8.7 1.6 0-2.1-.1-5-2.6-7.1-1.8-1.5-3.8-1.6-4.8-1.6-4.6 0-7.2 2.7-9.1 4.6l-4.4-3.7c3.2-3.6 7.8-8.3 18.3-8.3 7.1 0 10.4 2.1 11.6 2.9 5.9 3.8 6 9.1 6 13zm-15-15.3c-1.2-.3-2-.5-3.3-.5-4 0-5.1 2.6-5.1 4.4 0 2 1.4 3.8 3.8 3.8 2.1 0 3.4-1.2 4.6-2.5z"/><path d="m223.4 3.6h14.9v8.7h6.2v8.5h-6.2v12c0 1.6 0 5.5 4.2 5.5.8 0 1.5-.1 2.3-.3l1.8 4.8c-2.1 1.4-5.3 3.4-10.7 3.4-3.4 0-7-1-9.4-3.4-2.8-2.8-3-6.2-3-9.3v-12.7h-4v-8.5h4v-8.7z"/><path d="m283.8 36.6c-1.8 2.5-6.6 9.2-17.6 9.2-12.6 0-20.2-8-20.2-19.1 0-11.3 7.7-19.3 19.5-19.3 4.9 0 8.6 1.4 11.1 3 8.6 5.3 8.6 14.9 8.6 19.5h-24.3c.3 2.1.8 4.4 3.4 6.2 1.9 1.4 3.8 1.8 6.1 1.8 4.9 0 7.8-2.9 9.6-4.7zm-13-14c-.1-2.2-.4-7.2-5.1-7.2-4.4 0-5 4.7-5.3 7.2z"/></svg>